<svg width="229" height="150" viewBox="0 0 229 150" fill="none" xmlns="http://www.w3.org/2000/svg">
<path d="M159.355 126.545V144H155.707V129.545H148.651V144H145.003V126.545H159.355ZM164.752 144.239V141.239H165.698C166.17 141.239 166.55 141.182 166.84 141.068C167.13 140.949 167.36 140.776 167.531 140.548C167.707 140.315 167.854 140.026 167.974 139.679L168.187 139.108L161.846 126.545H165.664L169.772 135.136L173.207 126.545H176.974L170.957 140.574C170.667 141.222 170.323 141.824 169.925 142.381C169.533 142.937 169.031 143.386 168.417 143.727C167.803 144.068 167.019 144.239 166.065 144.239H164.752ZM193.316 132.656H189.583C189.515 132.173 189.376 131.744 189.165 131.369C188.955 130.989 188.685 130.665 188.356 130.398C188.026 130.131 187.646 129.926 187.214 129.784C186.788 129.642 186.325 129.571 185.825 129.571C184.921 129.571 184.134 129.795 183.464 130.244C182.793 130.687 182.273 131.335 181.904 132.188C181.535 133.034 181.35 134.062 181.35 135.273C181.35 136.517 181.535 137.562 181.904 138.409C182.279 139.256 182.802 139.895 183.472 140.327C184.143 140.759 184.918 140.974 185.799 140.974C186.293 140.974 186.751 140.909 187.171 140.778C187.597 140.648 187.975 140.457 188.305 140.207C188.634 139.952 188.907 139.642 189.123 139.278C189.344 138.915 189.498 138.5 189.583 138.034L193.316 138.051C193.219 138.852 192.978 139.625 192.592 140.369C192.211 141.108 191.697 141.77 191.049 142.355C190.407 142.935 189.64 143.395 188.748 143.736C187.862 144.071 186.859 144.239 185.739 144.239C184.183 144.239 182.79 143.886 181.563 143.182C180.342 142.477 179.376 141.457 178.665 140.122C177.961 138.787 177.609 137.17 177.609 135.273C177.609 133.369 177.967 131.75 178.683 130.415C179.398 129.08 180.37 128.062 181.597 127.364C182.825 126.659 184.205 126.307 185.739 126.307C186.751 126.307 187.688 126.449 188.552 126.733C189.421 127.017 190.191 127.432 190.862 127.977C191.532 128.517 192.077 129.179 192.498 129.963C192.924 130.747 193.197 131.645 193.316 132.656ZM195.298 129.588V126.545H209.633V129.588H204.289V144H200.641V129.588H195.298ZM227.237 135.273C227.237 137.176 226.876 138.795 226.154 140.131C225.438 141.466 224.461 142.486 223.222 143.19C221.989 143.889 220.603 144.239 219.063 144.239C217.512 144.239 216.12 143.886 214.887 143.182C213.654 142.477 212.68 141.457 211.964 140.122C211.248 138.787 210.89 137.17 210.89 135.273C210.89 133.369 211.248 131.75 211.964 130.415C212.68 129.08 213.654 128.062 214.887 127.364C216.12 126.659 217.512 126.307 219.063 126.307C220.603 126.307 221.989 126.659 223.222 127.364C224.461 128.062 225.438 129.08 226.154 130.415C226.876 131.75 227.237 133.369 227.237 135.273ZM223.495 135.273C223.495 134.04 223.31 133 222.941 132.153C222.577 131.307 222.063 130.665 221.398 130.227C220.734 129.79 219.955 129.571 219.063 129.571C218.171 129.571 217.393 129.79 216.728 130.227C216.063 130.665 215.546 131.307 215.177 132.153C214.813 133 214.631 134.04 214.631 135.273C214.631 136.506 214.813 137.545 215.177 138.392C215.546 139.239 216.063 139.881 216.728 140.318C217.393 140.756 218.171 140.974 219.063 140.974C219.955 140.974 220.734 140.756 221.398 140.318C222.063 139.881 222.577 139.239 222.941 138.392C223.31 137.545 223.495 136.506 223.495 135.273Z" fill="#6682AA"/>
<path fill-rule="evenodd" clip-rule="evenodd" d="M50.8673 135.644H45.9452C41.7217 135.644 37.6714 133.966 34.6849 130.98C31.6985 127.994 30.0208 123.943 30.0208 119.719C30.0208 115.496 31.6985 111.445 34.6849 108.459C36.7658 106.378 39.3629 104.933 42.1755 104.247L19.1167 25.5397L3.38199 16.4553C2.39788 15.8871 2.06023 14.6268 2.62846 13.643C3.1967 12.6589 4.4567 12.3212 5.44082 12.8892L21.8899 22.3862C22.3485 22.6509 22.6873 23.0821 22.8361 23.5903L26.9311 37.568H42.6005L36.8223 16.0033C36.0776 13.2236 37.7296 10.3618 40.5093 9.61709L54.7335 5.80562C57.5132 5.06092 60.3746 6.71298 61.1196 9.49268L63.6805 19.0506H75.7902C78.6679 19.0506 81.0043 21.3868 81.0043 24.2647V37.568H86.7167V17.9986C86.7167 15.1206 89.0532 12.7842 91.9311 12.7842H106.657C109.535 12.7842 111.871 15.1206 111.871 17.9986V21.7665L120.717 6.44503C122.156 3.95268 125.348 3.09739 127.84 4.53621L140.593 11.8992C143.085 13.338 143.94 16.5297 142.501 19.0221L131.794 37.568H145.588C146.22 37.568 146.817 37.8583 147.207 38.3553C147.598 38.8527 147.738 39.5015 147.588 40.1153L134.604 93.2686C132.504 101.865 124.802 107.912 115.953 107.912H45.2626C45.1773 107.93 45.0896 107.943 45.0005 107.95C44.9811 107.952 44.9617 107.954 44.942 107.955C42.1782 108.191 39.5732 109.394 37.5967 111.371C35.3823 113.585 34.1385 116.588 34.1385 119.719C34.1385 122.851 35.3823 125.854 37.5967 128.068C39.8108 130.282 42.8138 131.526 45.9452 131.526H50.8673C51.8511 125.563 57.0361 121.008 63.2764 121.008C69.517 121.008 74.702 125.563 75.6858 131.526H99.3099C100.294 125.563 105.479 121.008 111.719 121.008C118.661 121.008 124.296 126.644 124.296 133.585C124.296 140.527 118.661 146.162 111.719 146.162C105.479 146.162 100.294 141.608 99.3099 135.644H75.6858C74.702 141.608 69.517 146.162 63.2764 146.162C57.0361 146.162 51.8511 141.608 50.8673 135.644ZM28.1376 41.6856L46.3335 103.795H115.953C122.904 103.795 128.955 99.0441 130.604 92.2915L142.966 41.6856H28.1376ZM46.8635 37.568H55.8502V24.2647C55.8502 21.938 57.3773 19.9653 59.4832 19.295L57.1423 10.5586C56.9855 9.97386 56.3838 9.6265 55.7991 9.78298L41.5752 13.5944C40.9905 13.7509 40.6432 14.353 40.7996 14.9377L46.8635 37.568ZM59.9679 37.568H76.8867V24.2647C76.8867 23.6594 76.3955 23.1683 75.7902 23.1683H61.0643C60.459 23.1683 59.9679 23.6594 59.9679 24.2647V37.568ZM90.8344 37.568H107.753V17.9986C107.753 17.3933 107.262 16.9018 106.657 16.9018H91.9311C91.3258 16.9018 90.8344 17.3933 90.8344 17.9986V37.568ZM111.871 37.568H127.039L138.935 16.9633C139.238 16.4392 139.058 15.7677 138.534 15.465L125.781 8.10239C125.257 7.79974 124.586 7.97945 124.283 8.50386L111.871 30.0018V37.568ZM71.7361 133.585C71.7361 128.916 67.9455 125.126 63.2764 125.126C58.6076 125.126 54.817 128.916 54.817 133.585C54.817 138.254 58.6076 142.045 63.2764 142.045C67.9455 142.045 71.7361 138.254 71.7361 133.585ZM103.26 133.585C103.26 138.254 107.05 142.045 111.719 142.045C116.388 142.045 120.179 138.254 120.179 133.585C120.179 128.916 116.388 125.126 111.719 125.126C107.05 125.126 103.26 128.916 103.26 133.585ZM75.3346 55.8824V61.3747C75.3346 64.0268 73.1817 66.1797 70.5296 66.1797H65.0373C62.3852 66.1797 60.2323 64.0268 60.2323 61.3747V55.8824C60.2323 53.2303 62.3852 51.0774 65.0373 51.0774H70.5296C73.1817 51.0774 75.3346 53.2303 75.3346 55.8824ZM71.217 55.8824C71.217 55.503 70.909 55.195 70.5296 55.195H65.0373C64.6579 55.195 64.3499 55.503 64.3499 55.8824V61.3747C64.3499 61.7542 64.6579 62.0621 65.0373 62.0621H70.5296C70.909 62.0621 71.217 61.7542 71.217 61.3747V55.8824ZM110.748 55.8824V61.3747C110.748 64.0268 108.595 66.1797 105.943 66.1797H100.451C97.7988 66.1797 95.6458 64.0268 95.6458 61.3747V55.8824C95.6458 53.2303 97.7988 51.0774 100.451 51.0774H105.943C108.595 51.0774 110.748 53.2303 110.748 55.8824ZM106.631 55.8824C106.631 55.503 106.323 55.195 105.943 55.195H100.451C100.071 55.195 99.7635 55.503 99.7635 55.8824V61.3747C99.7635 61.7542 100.071 62.0621 100.451 62.0621H105.943C106.323 62.0621 106.631 61.7542 106.631 61.3747V55.8824Z" fill="#6682AA"/>
<rect x="61" y="83" width="49" height="4" rx="2" fill="#6682AA"/>
</svg>
